:SAMPLES-PER-SECOND 30
:FULLY-SPECIFIED
:DEGREES
274
root  -38.4471 31.408 -24.0237 15.7804 10.9702 6.53021
RightUpLeg  -43.5974 0.0257121 -3.41436
RightLeg  55.6432 1.97404 2.45448
RightFoot  -14.2454 -0.117057 -0.559218
RightToes  -45.7273 -0.265775 -0.345137
Spine  13.5372 -3.41446 -0.481063
Spine1  24.7254 -4.83449 -5.78181
HEad  5.00496 30.1153 -19.734
LeftShoulder1  0 -2.42657e-020 -4.95415e-022
LeftArm  -28.5944 1.38087 -76.3094
LeftForeArm  -167.273 -33.6605 -6.27641
LeftHand  11.898 -25.1723 -50.4198
RightShoulder  0 2.42657e-020 1.07489e-018
RightArm  -13.6339 11.8098 77.4916
RightForeArm  69.7033 64.598 21.8319
RightHand  -6.82353 23.6926 -31.3706
LeftUpLeg  -47.8556 5.91456 0.854022
LeftLeg  65.0316 -3.09893 -5.66356
LeftFoot  1.12279 -0.000142508 0.0145349
LeftToes  -27.0267 1.18758e-006 1.19596e-007
275
root  -36.9642 30.3662 -23.9068 16.2524 7.07169 7.5472
RightUpLeg  -46.717 6.03998 -8.41944
RightLeg  60.9789 1.47148 2.19689
RightFoot  -18.7804 -0.131227 -0.415974
RightToes  -34.3168 -0.174749 -0.280821
Spine  14.7815 -1.25113 -0.764853
Spine1  26.1428 0.282612 -6.71244
HEad  4.73132 26.3294 -19.0616
LeftShoulder1  0 -2.42657e-020 -4.95415e-022
LeftArm  -26.2148 -4.47445 -76.2082
LeftForeArm  -165.937 -32.403 -5.96398
LeftHand  11.6488 -25.023 -49.7563
RightShoulder  0 2.42657e-020 1.07489e-018
RightArm  -9.46347 19.1786 76.8484
RightForeArm  68.9156 53.7678 13.884
RightHand  -7.56196 23.9871 -34.1986
LeftUpLeg  -49.7831 6.38502 4.80668
LeftLeg  64.2911 -0.438076 -0.790108
LeftFoot  -4.54433 0.00388721 0.0979608
LeftToes  -18.1551 1.18758e-006 1.19596e-007
276
root  -35.4068 28.8518 -23.7577 16.5485 5.31787 9.11514
RightUpLeg  -51.4555 7.54682 -13.0348
RightLeg  70.2043 0.411068 0.77442
RightFoot  -23.8616 0.0193241 0.469018
RightToes  -31.7917 -0.156451 -0.264224
Spine  16.7757 0.839659 -0.366861
Spine1  28.5416 5.86799 -7.58217
HEad  4.69615 21.8683 -18.1043
LeftShoulder1  0 -2.42657e-020 -4.95415e-022
LeftArm  -22.8812 -11.5086 -76.9651
LeftForeArm  -165.996 -31.9803 -5.86124
LeftHand  11.5253 -24.8632 -49.5777
RightShoulder  0 2.42657e-020 1.07489e-018
RightArm  -11.5191 26.7402 75.6284
RightForeArm  71.2595 40.2921 8.52044
RightHand  -8.01448 24.2339 -35.7816
LeftUpLeg  -51.9757 5.30871 9.12645
LeftLeg  61.7548 0.336514 0.528801
LeftFoot  -7.34694 -0.0207526 -0.323246
LeftToes  -14.1366 1.18758e-006 1.19596e-007
277
root  -33.8639 27.3358 -23.5873 17.4512 4.74509 9.66448
RightUpLeg  -55.5942 7.08744 -16.9665
RightLeg  77.8288 0.40147 1.10411
RightFoot  -28.2005 0.10542 0.797254
RightToes  -35.3507 -0.182448 -0.287382
Spine  18.6532 2.26861 0.905443
Spine1  31.1478 9.78981 -6.12231
HEad  3.7282 17.2049 -17.9896
LeftShoulder1  0 -2.42657e-020 -4.95415e-022
LeftArm  -19.5294 -17.8592 -79.1317
LeftForeArm  -165.607 -31.9205 -5.84658
LeftHand  11.4562 -24.3997 -50.1599
RightShoulder  0 2.42657e-020 1.07489e-018
RightArm  -23.242 35.3475 73.3151
RightForeArm  70.3681 25.2511 4.69207
RightHand  -6.83823 24.4306 -30.494
LeftUpLeg  -54.9207 4.36695 14.443
LeftLeg  57.9113 0.697986 0.958953
LeftFoot  -9.91944 -0.0842985 -0.971387
LeftToes  -13.5295 1.18758e-006 1.19596e-007
278
root  -32.4409 25.9939 -23.2882 18.3518 5.72141 8.919
RightUpLeg  -57.729 6.4337 -19.2637
RightLeg  83.2772 0.213722 0.629504
RightFoot  -31.9182 0.303368 1.43838
RightToes  -37.8938 -0.20188 -0.302918
Spine  19.5648 2.60368 2.96679
Spine1  32.8617 10.7541 -2.62556
HEad  4.44986 13.6757 -17.3854
LeftShoulder1  0 -2.42657e-020 -4.95415e-022
LeftArm  -16.7678 -21.3651 -81.2936
LeftForeArm  -165.163 -32.2454 -5.92515
LeftHand  11.4423 -24.0495 -50.7612
RightShoulder  0 2.42657e-020 1.07489e-018
RightArm  -53.6366 43.6147 67.0484
RightForeArm  70.3072 8.35734 1.41674
RightHand  -4.04529 18.4567 -24.1651
LeftUpLeg  -58.0447 5.64704 19.2911
LeftLeg  54.0711 1.7639 2.12152
LeftFoot  -13.0867 -0.228373 -1.99081
LeftToes  -10.4052 1.18758e-006 1.19596e-007
279
root  -31.021 25.113 -22.9906 19.2892 7.44476 7.62983
RightUpLeg  -57.8829 5.11126 -20.7794
RightLeg  85.6898 0.0986775 -0.0300075
RightFoot  -34.1373 0.491219 1.97734
RightToes  -40.7253 -0.224303 -0.319182
Spine  18.9656 1.85798 4.82691
Spine1  32.3634 8.48966 1.40556
HEad  4.36517 11.7107 -16.1843
LeftShoulder1  0 -2.42657e-020 -4.95415e-022
LeftArm  -15.9143 -21.5876 -82.4659
LeftForeArm  -164.401 -32.9366 -6.09431
LeftHand  11.3457 -23.6557 -51.1359
RightShoulder  0 2.42657e-020 1.07489e-018
RightArm  -79.9064 41.5308 61.2656
RightForeArm  44.9414 6.31956 1.10544
RightHand  -2.3573 16.6209 -15.6708
LeftUpLeg  -60.8781 8.4127 21.8455
LeftLeg  50.5108 3.61328 3.8358
LeftFoot  -14.7555 -0.396272 -3.05973
LeftToes  -7.46802 1.18758e-006 1.19596e-007
280
root  -29.4835 24.6426 -22.5511 19.9763 9.28107 6.26084
RightUpLeg  -55.9489 4.49582 -22.1902
RightLeg  85.4951 -0.0994416 -1.4027
RightFoot  -35.3079 0.755923 2.75251
RightToes  -43.0869 -0.2436 -0.331887
Spine  17.9817 0.476992 6.19731
Spine1  31.2627 5.06115 3.98125
HEad  3.59015 12.634 -15.4465
LeftShoulder1  0 -2.42657e-020 -4.95415e-022
LeftArm  -16.98 -19.6172 -82.1078
LeftForeArm  -165.449 -35.4197 -6.72707
LeftHand  11.3648 -23.365 -51.7786
RightShoulder  0 2.42657e-020 1.07489e-018
RightArm  -82.3946 37.7025 61.5965
RightForeArm  39.2591 11.9167 2.12154
RightHand  -1.55952 21.3319 -7.89891
LeftUpLeg  -62.4538 11.3648 22.1137
LeftLeg  47.9389 3.47687 3.37493
LeftFoot  -11.5645 -0.279139 -2.75605
LeftToes  -24.17 1.18758e-006 1.19596e-007
281
root  -27.8856 24.5173 -21.9861 19.5876 9.40054 4.29899
RightUpLeg  -52.6687 6.18609 -23.24
RightLeg  83.0276 -0.491109 -3.12473
RightFoot  -35.1046 1.00834 3.56477
RightToes  -44.892 -0.258694 -0.341056
Spine  17.5786 -0.560659 6.52979
Spine1  31.1768 2.70103 4.31969
HEad  2.59425 15.5424 -15.9028
LeftShoulder1  0 -2.42657e-020 -4.95415e-022
LeftArm  -19.418 -17.6069 -80.3401
LeftForeArm  -165.741 -37.9392 -7.41041
LeftHand  11.3904 -22.9617 -52.6871
RightShoulder  0 2.42657e-020 1.07489e-018
RightArm  -63.1802 31.5432 63.691
RightForeArm  35.6633 21.41 3.95332
RightHand  -1.19619 21.5708 -5.90498
LeftUpLeg  -64.0941 17.2887 19.0807
LeftLeg  50.268 0.378005 0.392013
LeftFoot  -0.052235 -0.000702533 -1.54099
LeftToes  -42.4073 1.18758e-006 1.19596e-007
282
root  -26.2833 24.855 -21.4576 19.4429 9.09528 2.65132
RightUpLeg  -48.9304 8.26865 -24.2989
RightLeg  78.3353 -1.23283 -4.80165
RightFoot  -33.0224 1.12082 4.15749
RightToes  -46.0255 -0.268317 -0.346568
Spine  17.0818 -1.88662 5.87418
Spine1  30.5113 -0.920075 4.55197
HEad  1.12074 18.2035 -15.9985
LeftShoulder1  0 -2.42657e-020 -4.95415e-022
LeftArm  -22.4896 -15.1724 -78.2693
LeftForeArm  -165.14 -39.4652 -7.84724
LeftHand  11.5465 -22.8703 -53.4989
RightShoulder  0 2.42657e-020 1.07489e-018
RightArm  -57.3018 25.2186 67.8309
RightForeArm  16.6026 34.0212 6.83474
RightHand  -0.78165 21.6348 -3.72018
LeftUpLeg  -67.2416 20.2683 16.0241
LeftLeg  55.8175 -4.31434 -5.53571
LeftFoot  3.29954 0.0479586 -1.66501
LeftToes  -41.7919 1.18758e-006 1.19596e-007
283
root  -24.5375 25.4089 -20.8272 19.0481 7.53268 1.67166
RightUpLeg  -45.4433 10.175 -25.7269
RightLeg  73.5955 -2.31517 -6.51753
RightFoot  -29.0818 1.10085 4.62002
RightToes  -45.5829 -0.264546 -0.344438
Spine  16.6885 -2.95693 4.0506
Spine1  29.8154 -4.1853 3.66642
HEad  1.90218 20.9885 -14.9873
LeftShoulder1  0 -2.42657e-020 -4.95415e-022
LeftArm  -25.6281 -12.7597 -75.8445
LeftForeArm  -167.251 -40.2774 -8.0895
LeftHand  11.7172 -23.2978 -53.3037
RightShoulder  0 2.42657e-020 1.07489e-018
RightArm  -49.6092 18.844 71.4086
RightForeArm  23.2432 45.6576 10.412
RightHand  -1.16164 21.5072 -5.7425
LeftUpLeg  -65.7656 19.4001 15.3329
LeftLeg  57.552 -5.31021 -7.23475
LeftFoot  7.81296 0.151389 -2.2167
LeftToes  -43.2422 1.18758e-006 1.19596e-007
284
root  -23.165 25.9814 -20.1443 18.0674 5.89963 -1.49968
RightUpLeg  -43.0756 13.4369 -23.5229
RightLeg  71.0947 -3.67696 -8.93689
RightFoot  -25.9961 1.11616 5.21036
RightToes  -31.3774 -0.15352 -0.261424
Spine  16.1261 -3.37327 2.8558
Spine1  29.136 -6.20074 3.64344
HEad  3.69513 23.6426 -13.6567
LeftShoulder1  0 -2.42657e-020 -4.95415e-022
LeftArm  -28.9496 -10.0336 -74.6703
LeftForeArm  -167.234 -40.7012 -8.21746
LeftHand  11.816 -23.4124 -53.4598
RightShoulder  0 2.42657e-020 1.07489e-018
RightArm  -41.4603 11.5292 73.453
RightForeArm  28.6775 58.8577 17.0396
RightHand  -1.89504 23.3912 -8.76811
LeftUpLeg  -64.201 17.528 18.4514
LeftLeg  61.045 -2.72061 -4.24964
LeftFoot  5.04493 0.0559044 -1.26896
LeftToes  -43.5208 1.18758e-006 1.19596e-007
285
root  -22.1308 26.3626 -19.5181 17.9821 6.27304 -3.60733
RightUpLeg  -41.5263 14.375 -20.7011
RightLeg  71.2844 -1.87377 -4.71869
RightFoot  -23.7036 0.509617 2.80572
RightToes  -35.1887 -0.181234 -0.286363
Spine  15.4631 -3.79425 2.2067
Spine1  28.1611 -7.44722 2.87743
HEad  4.82072 25.5034 -11.5882
LeftShoulder1  0 -2.42657e-020 -4.95415e-022
LeftArm  -31.6299 -7.67685 -73.5354
LeftForeArm  -166.118 -41.4727 -8.45384
LeftHand  11.7744 -23.2586 -53.6077
RightShoulder  0 2.42657e-020 1.07489e-018
RightArm  -32.5096 2.6565 75.2379
RightForeArm  61.9881 74.4804 39.7905
RightHand  -4.15808 23.0344 -19.8385
LeftUpLeg  -64.0853 15.487 20.1104
LeftLeg  63.32 -1.7132 -2.9335
LeftFoot  2.88978 0.0220529 -0.874297
LeftToes  -43.6627 1.18758e-006 1.19596e-007
286
root  -21.2997 26.5895 -18.9896 18.3828 8.08475 -4.05739
RightUpLeg  -40.1855 12.2445 -17.861
RightLeg  73.2742 -0.845159 -2.48374
RightFoot  -23.108 0.285998 1.77651
RightToes  -38.3336 -0.20531 -0.305517
Spine  15.1762 -4.16131 1.54502
Spine1  27.577 -8.07969 1.75772
HEad  6.13688 25.2997 -8.97103
LeftShoulder1  0 -2.42657e-020 -4.95415e-022
LeftArm  -33.2814 -7.19023 -72.5864
LeftForeArm  -166.887 -41.9999 -8.61992
LeftHand  11.8014 -23.297 -53.6356
RightShoulder  0 2.42657e-020 1.07489e-018
RightArm  -24.6568 -3.39332 77.0918
RightForeArm  126.185 79.9038 88.2827
RightHand  -6.16499 21.9936 -30.617
LeftUpLeg  -65.0527 13.7585 19.3736
LeftLeg  64.7189 -1.56079 -2.83003
LeftFoot  0.97392 0.00562778 -0.662154
LeftToes  -42.5269 1.18758e-006 1.19596e-007
287
root  -20.5111 26.8304 -18.6652 19.6045 10.6883 -3.44067
RightUpLeg  -39.5571 7.86261 -16.2722
RightLeg  74.0136 -1.17021 -3.49498
RightFoot  -24.056 0.410769 2.30533
RightToes  -36.5426 -0.19147 -0.29477
Spine  15.2207 -4.33033 0.963998
Spine1  27.2652 -8.66234 1.66346
HEad  5.92995 22.4482 -6.52098
LeftShoulder1  0 -2.42657e-020 -4.95415e-022
LeftArm  -33.6948 -9.42265 -72.8943
LeftForeArm  -167.912 -41.1759 -8.36337
LeftHand  11.913 -23.2813 -54.1042
RightShoulder  0 2.42657e-020 1.07489e-018
RightArm  -17.6842 -6.12876 77.7934
RightForeArm  167.618 78.52 118.813
RightHand  -7.46306 20.1168 -40.0171
LeftUpLeg  -67.0368 12.0721 16.921
LeftLeg  65.1563 -1.62622 -3.00165
LeftFoot  -0.0300108 -0.00161053 -0.55139
LeftToes  -40.7303 1.18758e-006 1.19596e-007
